<svg width="26" height="26" viewBox="0 0 26 26" fill="none" xmlns="http://www.w3.org/2000/svg">
<path fill-rule="evenodd" clip-rule="evenodd" d="M2.25 8C2.25 4.82436 4.82436 2.25 8 2.25H18C21.1756 2.25 23.75 4.82436 23.75 8V18C23.75 21.1756 21.1756 23.75 18 23.75H8C4.82436 23.75 2.25 21.1756 2.25 18V8ZM8 3.75C5.65279 3.75 3.75 5.65279 3.75 8V18C3.75 20.3472 5.65279 22.25 8 22.25H18C20.3472 22.25 22.25 20.3472 22.25 18V8C22.25 5.65279 20.3472 3.75 18 3.75H8Z" fill="#D4D4D4"/>
<path fill-rule="evenodd" clip-rule="evenodd" d="M3.25 8C3.25 5.23858 5.48858 3 8.25 3H18.25C21.0114 3 23.25 5.23858 23.25 8V18C23.25 18.7273 23.0947 19.4184 22.8155 20.0418L23.1711 17.5524C23.2201 17.2091 23.0878 16.8648 22.8213 16.6428L18.5128 13.0523C17.7976 12.4563 16.746 12.504 16.0877 13.1623L11.0985 18.1515C10.6299 18.6201 9.8701 18.6201 9.40147 18.1515L8.32822 17.0782C7.70603 16.456 6.72521 16.3749 6.0092 16.8863L4.16876 18.2009C3.90597 18.3886 3.75 18.6917 3.75 19.0146V20.0194C3.75 20.0894 3.75734 20.1586 3.77154 20.2259C3.43774 19.5555 3.25 18.7997 3.25 18V8ZM20.488 22.3096L22.4141 20.7688C21.5179 22.1138 19.9874 23 18.25 23H8.25C6.51076 23 4.97892 22.112 4.08318 20.7646C4.09685 20.7768 4.11089 20.7887 4.12531 20.8002L6.00317 22.3025C6.16381 22.431 6.36017 22.5069 6.56548 22.5197L14.1772 22.9955C14.2257 22.9985 14.2743 22.998 14.3227 22.9939L19.9463 22.5253C20.1443 22.5088 20.3328 22.4337 20.488 22.3096ZM9.25 11C8.14543 11 7.25 10.1046 7.25 9C7.25 7.89543 8.14543 7 9.25 7C10.3546 7 11.25 7.89543 11.25 9C11.25 10.1046 10.3546 11 9.25 11Z" fill="#D4D4D4"/>
</svg>
