<svg width="16" height="16" viewBox="0 0 16 16" fill="none" xmlns="http://www.w3.org/2000/svg">
<g clip-path="url(#clip0_952_17090)">
<path d="M7.0578 2.64949C7.37309 1.76291 8.62691 1.76291 8.9422 2.64949L9.15961 3.26086C9.35815 3.81918 9.99593 4.08335 10.5311 3.82895L11.1171 3.55039C11.967 3.14641 12.8536 4.033 12.4496 4.88286L12.171 5.46888C11.9166 6.00408 12.1808 6.64185 12.7391 6.84039L13.3505 7.0578C14.2371 7.37309 14.2371 8.62691 13.3505 8.9422L12.7391 9.15961C12.1808 9.35815 11.9166 9.99593 12.171 10.5311L12.4496 11.1171C12.8536 11.967 11.967 12.8536 11.1171 12.4496L10.5311 12.171C9.99592 11.9166 9.35815 12.1808 9.15961 12.7391L8.9422 13.3505C8.62691 14.2371 7.37309 14.2371 7.0578 13.3505L6.84039 12.7391C6.64185 12.1808 6.00408 11.9166 5.46888 12.171L4.88286 12.4496C4.033 12.8536 3.14641 11.967 3.55039 11.1171L3.82895 10.5311C4.08335 9.99592 3.81918 9.35815 3.26086 9.15961L2.64949 8.9422C1.76291 8.62691 1.76291 7.37309 2.64949 7.0578L3.26086 6.84039C3.81918 6.64185 4.08335 6.00408 3.82895 5.46888L3.55039 4.88286C3.14641 4.033 4.033 3.14641 4.88286 3.55039L5.46888 3.82895C6.00408 4.08335 6.64185 3.81918 6.84039 3.26086L7.0578 2.64949Z" fill="#FF472F"/>
</g>
<defs>
<clipPath id="clip0_952_17090">
<rect width="16" height="16" fill="white"/>
</clipPath>
</defs>
</svg>
