<svg width="24" height="24" viewBox="0 0 24 24" fill="none" xmlns="http://www.w3.org/2000/svg">
<path d="M7 7C7 5.89543 7.89543 5 9 5V3C6.79086 3 5 4.79086 5 7H7ZM9 9C7.89543 9 7 8.10457 7 7H5C5 9.20914 6.79086 11 9 11V9ZM11 7C11 8.10457 10.1046 9 9 9V11C11.2091 11 13 9.20914 13 7H11ZM9 5C10.1046 5 11 5.89543 11 7H13C13 4.79086 11.2091 3 9 3V5Z" fill="black"/>
<path d="M16 8C16 7.44772 16.4477 7 17 7V5C15.3431 5 14 6.34315 14 8H16ZM17 9C16.4477 9 16 8.55228 16 8H14C14 9.65685 15.3431 11 17 11V9ZM18 8C18 8.55228 17.5523 9 17 9V11C18.6569 11 20 9.65685 20 8H18ZM17 7C17.5523 7 18 7.44772 18 8H20C20 6.34315 18.6569 5 17 5V7Z" fill="black"/>
<path d="M4 18.1875C4 15.5791 6.06604 13.5 8.57143 13.5V11.5C4.92279 11.5 2 14.5136 2 18.1875H4ZM13.6875 18.5H4.3125V20.5H13.6875V18.5ZM9.42857 13.5C11.934 13.5 14 15.5791 14 18.1875H16C16 14.5136 13.0772 11.5 9.42857 11.5V13.5ZM8.57143 13.5H9.42857V11.5H8.57143V13.5ZM13.6875 20.5C14.9647 20.5 16 19.4647 16 18.1875H14C14 18.3601 13.8601 18.5 13.6875 18.5V20.5ZM2 18.1875C2 19.4647 3.03534 20.5 4.3125 20.5V18.5C4.13991 18.5 4 18.3601 4 18.1875H2Z" fill="black"/>
<path fill-rule="evenodd" clip-rule="evenodd" d="M16 12.9375C16 12.3852 16.4505 11.9302 16.9957 12.0184C19.9325 12.4936 22.5714 15.0106 22.5714 18.1875C22.5714 19.223 21.732 20.0625 20.6964 20.0625H19C18.4477 20.0625 18 19.6148 18 19.0625C18 18.5102 18.4477 18.0625 19 18.0625H20.5692C20.5017 16.1683 18.9092 14.4951 16.9914 14.0519C16.4533 13.9276 16 13.4898 16 12.9375Z" fill="black"/>
</svg>
