<svg width="24" height="24" viewBox="0 0 24 24" fill="none" xmlns="http://www.w3.org/2000/svg">
<path fill-rule="evenodd" clip-rule="evenodd" d="M9 4C7.34315 4 6 5.34315 6 7C6 8.65685 7.34315 10 9 10C10.6569 10 12 8.65685 12 7C12 5.34315 10.6569 4 9 4Z" fill="#D4D4D4"/>
<path d="M6.75 7C6.75 5.75736 7.75736 4.75 9 4.75V3.25C6.92893 3.25 5.25 4.92893 5.25 7H6.75ZM9 9.25C7.75736 9.25 6.75 8.24264 6.75 7H5.25C5.25 9.07107 6.92893 10.75 9 10.75V9.25ZM11.25 7C11.25 8.24264 10.2426 9.25 9 9.25V10.75C11.0711 10.75 12.75 9.07107 12.75 7H11.25ZM9 4.75C10.2426 4.75 11.25 5.75736 11.25 7H12.75C12.75 4.92893 11.0711 3.25 9 3.25V4.75Z" fill="#D4D4D4"/>
<path fill-rule="evenodd" clip-rule="evenodd" d="M17 6C15.8954 6 15 6.89543 15 8C15 9.10457 15.8954 10 17 10C18.1046 10 19 9.10457 19 8C19 6.89543 18.1046 6 17 6Z" fill="#D4D4D4"/>
<path d="M15.75 8C15.75 7.30964 16.3096 6.75 17 6.75V5.25C15.4812 5.25 14.25 6.48122 14.25 8H15.75ZM17 9.25C16.3096 9.25 15.75 8.69036 15.75 8H14.25C14.25 9.51878 15.4812 10.75 17 10.75V9.25ZM18.25 8C18.25 8.69036 17.6904 9.25 17 9.25V10.75C18.5188 10.75 19.75 9.51878 19.75 8H18.25ZM17 6.75C17.6904 6.75 18.25 7.30964 18.25 8H19.75C19.75 6.48122 18.5188 5.25 17 5.25V6.75Z" fill="#D4D4D4"/>
<path fill-rule="evenodd" clip-rule="evenodd" d="M8.57143 12.5C5.49441 12.5 3 15.0464 3 18.1875C3 18.9124 3.58763 19.5 4.3125 19.5H13.6875C14.4124 19.5 15 18.9124 15 18.1875C15 15.0464 12.5056 12.5 9.42857 12.5H8.57143Z" fill="#D4D4D4"/>
<path d="M3.75 18.1875C3.75 15.4459 5.92313 13.25 8.57143 13.25V11.75C5.0657 11.75 2.25 14.6468 2.25 18.1875H3.75ZM13.6875 18.75H4.3125V20.25H13.6875V18.75ZM9.42857 13.25C12.0769 13.25 14.25 15.4459 14.25 18.1875H15.75C15.75 14.6468 12.9343 11.75 9.42857 11.75V13.25ZM8.57143 13.25H9.42857V11.75H8.57143V13.25ZM13.6875 20.25C14.8266 20.25 15.75 19.3266 15.75 18.1875H14.25C14.25 18.4982 13.9982 18.75 13.6875 18.75V20.25ZM2.25 18.1875C2.25 19.3266 3.17341 20.25 4.3125 20.25V18.75C4.00184 18.75 3.75 18.4982 3.75 18.1875H2.25Z" fill="#D4D4D4"/>
<path fill-rule="evenodd" clip-rule="evenodd" d="M16 13.1995C16 12.5025 16.5705 11.9264 17.2535 12.0655C20.0851 12.6419 22.5714 15.1038 22.5714 18.1875C22.5714 19.223 21.732 20.0625 20.6964 20.0625H20C18.8954 20.0625 17.9085 19.1723 17.709 18.0859C17.6515 17.7726 17.5825 17.4127 17.5 17C17.2367 15.6837 16.8349 14.9045 16.5133 14.4617C16.2454 14.0928 16 13.6554 16 13.1995Z" fill="#D4D4D4"/>
</svg>
