<svg width="28" height="28" viewBox="0 0 28 28" fill="none" xmlns="http://www.w3.org/2000/svg">
<mask id="mask0_745_39332" style="mask-type:alpha" maskUnits="userSpaceOnUse" x="2" y="2" width="24" height="24">
<rect x="2" y="2" width="24" height="24" fill="#D9D9D9"/>
</mask>
<g mask="url(#mask0_745_39332)">
<path d="M9.875 8.74625L12.5787 5.198C12.7582 4.95783 12.9714 4.7815 13.2183 4.669C13.4651 4.55633 13.7257 4.5 14 4.5C14.2743 4.5 14.5349 4.55633 14.7817 4.669C15.0286 4.7815 15.2417 4.95783 15.4212 5.198L18.125 8.74625L22.2595 10.1423C22.6545 10.2693 22.9625 10.4932 23.1835 10.814C23.4047 11.135 23.5152 11.4895 23.5152 11.8775C23.5152 12.0567 23.4891 12.2353 23.4368 12.4133C23.3844 12.5913 23.2984 12.7618 23.1788 12.925L20.4865 16.6615L20.5865 20.627C20.6032 21.1535 20.4296 21.5973 20.0658 21.9583C19.7021 22.3194 19.2783 22.5 18.7943 22.5C18.7801 22.5 18.6128 22.4782 18.2923 22.4345L14 21.2038L9.70775 22.4345C9.62442 22.4678 9.53842 22.4871 9.44975 22.4923C9.36108 22.4974 9.27975 22.5 9.20575 22.5C8.71725 22.5 8.29225 22.3194 7.93075 21.9583C7.56925 21.5973 7.39683 21.1535 7.4135 20.627L7.5135 16.6365L4.8365 12.925C4.71683 12.7612 4.63083 12.5899 4.5785 12.4113C4.52617 12.2324 4.5 12.0537 4.5 11.875C4.5 11.4978 4.60983 11.1471 4.8295 10.8227C5.04917 10.4984 5.356 10.2684 5.75 10.1328L9.875 8.74625ZM10.802 10.0385L6.23075 11.5615C6.13458 11.5935 6.06892 11.6592 6.03375 11.7587C5.99842 11.8581 6.01283 11.9494 6.077 12.0328L9.023 16.1905L8.9135 20.6578C8.907 20.7668 8.94542 20.8532 9.02875 20.9172C9.11208 20.9814 9.20508 20.9975 9.30775 20.9655L14 19.648L18.6923 20.9905C18.7949 21.0225 18.8879 21.0064 18.9712 20.9423C19.0546 20.8783 19.093 20.7918 19.0865 20.6828L18.977 16.1905L21.923 12.0827C21.9872 11.9994 22.0016 11.9081 21.9663 11.8087C21.9311 11.7092 21.8654 11.6435 21.7693 11.6115L17.198 10.0385L14.2405 6.13475C14.1827 6.05125 14.1025 6.0095 14 6.0095C13.8975 6.0095 13.8173 6.05125 13.7595 6.13475L10.802 10.0385Z" fill="#D4D4D4"/>
</g>
</svg>
