<svg width="24" height="24" viewBox="0 0 24 24" fill="none" xmlns="http://www.w3.org/2000/svg">
<path d="M2 10.6178C2 10.0394 2.25042 9.48927 2.68664 9.10944L10.6866 2.14358C11.4395 1.48804 12.5605 1.48804 13.3134 2.14358L21.3134 9.10944C21.7496 9.48927 22 10.0394 22 10.6178V20C22 21.1046 21.1046 22 20 22H17C15.8954 22 15 21.1046 15 20V17C15 15.8954 14.1046 15 13 15H11C9.89543 15 9 15.8954 9 17V20C9 21.1046 8.10457 22 7 22H4C2.89543 22 2 21.1046 2 20V10.6178Z" fill="#D4D4D4" stroke="#D4D4D4" stroke-width="1.5"/>
</svg>
