<svg width="28" height="29" viewBox="0 0 28 29" fill="none" xmlns="http://www.w3.org/2000/svg">
<path d="M2 14.2168C2 7.58938 7.37258 2.2168 14 2.2168C20.6274 2.2168 26 7.58938 26 14.2168C26 20.8442 20.6274 26.2168 14 26.2168C7.37258 26.2168 2 20.8442 2 14.2168Z" fill="#1ED45A"/>
<mask id="mask0_3030_27689" style="mask-type:alpha" maskUnits="userSpaceOnUse" x="4" y="4" width="20" height="21">
<rect x="4" y="4.2168" width="20" height="20" fill="#D9D9D9"/>
</mask>
<g mask="url(#mask0_3030_27689)">
<path d="M11.9584 17.1466L19.1571 9.94789C19.281 9.82386 19.426 9.76053 19.5921 9.75789C19.7582 9.75525 19.9059 9.81859 20.0353 9.94789C20.1646 10.0772 20.2292 10.2257 20.2292 10.3933C20.2292 10.5611 20.1646 10.7096 20.0353 10.8389L12.4857 18.4014C12.335 18.552 12.1592 18.6273 11.9584 18.6273C11.7575 18.6273 11.5818 18.552 11.4311 18.4014L7.95192 14.9223C7.82803 14.7982 7.76692 14.651 7.76859 14.4806C7.77012 14.3103 7.83553 14.1605 7.96484 14.0312C8.09414 13.9019 8.24262 13.8373 8.41025 13.8373C8.57803 13.8373 8.72657 13.9019 8.85588 14.0312L11.9584 17.1466Z" fill="white"/>
</g>
</svg>
