<svg width="32" height="32" viewBox="0 0 32 32" fill="none" xmlns="http://www.w3.org/2000/svg">
<path d="M0 8C0 3.58172 3.58172 0 8 0H24C28.4183 0 32 3.58172 32 8V24C32 28.4183 28.4183 32 24 32H8C3.58172 32 0 28.4183 0 24V8Z" fill="#FFA938"/>
<rect x="7.63281" y="8.78369" width="16.7354" height="15.6389" rx="2.94568" fill="#FAFAFA"/>
<path d="M7.63281 11.7294C7.63281 10.1025 8.95164 8.78369 10.5785 8.78369H21.4225C23.0493 8.78369 24.3682 10.1025 24.3682 11.7294V14.3146H7.63281V11.7294Z" fill="#FF9200"/>
<path d="M18.8025 16.5737V21.2161H17.8392V17.4918H17.812L16.7466 18.1605V17.3036L17.8958 16.5737H18.8025Z" fill="#FF9200"/>
<path d="M14.4251 21.3158C13.2623 21.3135 12.5573 20.425 12.5596 18.8994C12.5618 17.3784 13.2645 16.5103 14.4251 16.5103C15.5812 16.5103 16.2907 17.383 16.2884 18.8994C16.2861 20.4295 15.5857 21.3158 14.4251 21.3158ZM13.5434 18.8994C13.5411 19.9739 13.8856 20.5134 14.4251 20.5134C14.9623 20.5134 15.3069 19.9739 15.3046 18.8994C15.3046 17.8386 14.9601 17.3036 14.4251 17.3036C13.8879 17.3036 13.5456 17.8386 13.5434 18.8994Z" fill="#FF9200"/>
<rect x="10.8826" y="7.57764" width="0.717243" height="2.32097" rx="0.358622" fill="#FAFAFA"/>
<rect x="14.0549" y="7.57764" width="0.717243" height="2.32097" rx="0.358622" fill="#FAFAFA"/>
<rect x="17.2271" y="7.57764" width="0.717243" height="2.32097" rx="0.358622" fill="#FAFAFA"/>
<rect x="20.3982" y="7.57764" width="0.717243" height="2.32097" rx="0.358622" fill="#FAFAFA"/>
</svg>
