<svg width="28" height="28" viewBox="0 0 28 28" fill="none" xmlns="http://www.w3.org/2000/svg">
<path d="M2 14C2 7.37258 7.37258 2 14 2V2C20.6274 2 26 7.37258 26 14V14C26 20.6274 20.6274 26 14 26V26C7.37258 26 2 20.6274 2 14V14Z" fill="#FF5D58"/>
<mask id="mask0_745_39327" style="mask-type:alpha" maskUnits="userSpaceOnUse" x="4" y="4" width="20" height="20">
<rect x="4" y="4" width="20" height="20" fill="#D9D9D9"/>
</mask>
<g mask="url(#mask0_745_39327)">
<path d="M11.9584 16.9298L19.1571 9.73109C19.281 9.60707 19.426 9.54373 19.5921 9.54109C19.7582 9.53846 19.9059 9.60179 20.0353 9.73109C20.1646 9.8604 20.2292 10.0089 20.2292 10.1765C20.2292 10.3443 20.1646 10.4928 20.0353 10.6221L12.4857 18.1846C12.335 18.3352 12.1592 18.4105 11.9584 18.4105C11.7575 18.4105 11.5818 18.3352 11.4311 18.1846L7.95192 14.7055C7.82803 14.5814 7.76692 14.4342 7.76859 14.2638C7.77012 14.0935 7.83553 13.9437 7.96484 13.8144C8.09414 13.6851 8.24262 13.6205 8.41025 13.6205C8.57803 13.6205 8.72657 13.6851 8.85588 13.8144L11.9584 16.9298Z" fill="white"/>
</g>
</svg>
