<svg width="24" height="24" viewBox="0 0 24 24" fill="none" xmlns="http://www.w3.org/2000/svg">
<path fill-rule="evenodd" clip-rule="evenodd" d="M12 4C10.067 4 8.5 5.567 8.5 7.5C8.5 9.433 10.067 11 12 11C13.933 11 15.5 9.433 15.5 7.5C15.5 5.567 13.933 4 12 4Z" fill="#D4D4D4"/>
<path d="M9.25 7.5C9.25 5.98122 10.4812 4.75 12 4.75V3.25C9.65279 3.25 7.75 5.15279 7.75 7.5H9.25ZM12 10.25C10.4812 10.25 9.25 9.01878 9.25 7.5H7.75C7.75 9.84721 9.65279 11.75 12 11.75V10.25ZM14.75 7.5C14.75 9.01878 13.5188 10.25 12 10.25V11.75C14.3472 11.75 16.25 9.84721 16.25 7.5H14.75ZM12 4.75C13.5188 4.75 14.75 5.98122 14.75 7.5H16.25C16.25 5.15279 14.3472 3.25 12 3.25V4.75Z" fill="#D4D4D4"/>
<path fill-rule="evenodd" clip-rule="evenodd" d="M11.5 13.333C7.91015 13.333 5 15.8794 5 19.0205C5 19.7454 5.58763 20.333 6.3125 20.333H17.6875C18.4124 20.333 19 19.7454 19 19.0205C19 15.8794 16.0899 13.333 12.5 13.333H11.5Z" fill="#D4D4D4"/>
<path d="M5.75 19.0205C5.75 16.3845 8.22716 14.083 11.5 14.083V12.583C7.59314 12.583 4.25 15.3742 4.25 19.0205H5.75ZM17.6875 19.583H6.3125V21.083H17.6875V19.583ZM12.5 14.083C15.7728 14.083 18.25 16.3845 18.25 19.0205H19.75C19.75 15.3742 16.4069 12.583 12.5 12.583V14.083ZM11.5 14.083H12.5V12.583H11.5V14.083ZM17.6875 21.083C18.8266 21.083 19.75 20.1596 19.75 19.0205H18.25C18.25 19.3312 17.9982 19.583 17.6875 19.583V21.083ZM4.25 19.0205C4.25 20.1596 5.17341 21.083 6.3125 21.083V19.583C6.00184 19.583 5.75 19.3312 5.75 19.0205H4.25Z" fill="#D4D4D4"/>
</svg>
