<svg width="24" height="24" viewBox="0 0 24 24" fill="none" xmlns="http://www.w3.org/2000/svg">
<path d="M5.20173 17.5H18.7983C19.8438 17.5 20.5513 16.4344 20.1456 15.4708L19.7009 14.4146C19.2383 13.316 19 12.1359 19 10.9439V9C19 5.13401 15.866 2 12 2C8.13401 2 5 5.13401 5 9V10.9439C5 12.1359 4.7617 13.316 4.29912 14.4146L3.8544 15.4708C3.44868 16.4344 4.15621 17.5 5.20173 17.5Z" stroke="#262626" stroke-width="2"/>
<path d="M9 18C9 18 9 21 12 21C15 21 15 18 15 18" stroke="#262626" stroke-width="2" stroke-linecap="round" stroke-linejoin="round"/>
</svg>
