<svg width="24" height="24" viewBox="0 0 24 24" fill="none" xmlns="http://www.w3.org/2000/svg">
<path fill-rule="evenodd" clip-rule="evenodd" d="M9 4H6C4.89543 4 4 4.89543 4 6V19C4 20.1046 4.89543 21 6 21H18C19.1046 21 20 20.1046 20 19V6C20 4.89543 19.1046 4 18 4H15V5C15 5.55228 14.5523 6 14 6H10C9.44772 6 9 5.55228 9 5V4ZM7.75 11.25C7.75 10.5596 8.30964 10 9 10H15C15.6904 10 16.25 10.5596 16.25 11.25C16.25 11.9404 15.6904 12.5 15 12.5H9C8.30964 12.5 7.75 11.9404 7.75 11.25ZM9 14C8.30964 14 7.75 14.5596 7.75 15.25C7.75 15.9404 8.30964 16.5 9 16.5H15C15.6904 16.5 16.25 15.9404 16.25 15.25C16.25 14.5596 15.6904 14 15 14H9Z" fill="black"/>
<path d="M9 4H9.5V3.5H9V4ZM15 4V3.5H14.5V4H15ZM6 4.5H9V3.5H6V4.5ZM4.5 6C4.5 5.17157 5.17157 4.5 6 4.5V3.5C4.61929 3.5 3.5 4.61929 3.5 6H4.5ZM4.5 19V6H3.5V19H4.5ZM6 20.5C5.17157 20.5 4.5 19.8284 4.5 19H3.5C3.5 20.3807 4.61929 21.5 6 21.5V20.5ZM18 20.5H6V21.5H18V20.5ZM19.5 19C19.5 19.8284 18.8284 20.5 18 20.5V21.5C19.3807 21.5 20.5 20.3807 20.5 19H19.5ZM19.5 6V19H20.5V6H19.5ZM18 4.5C18.8284 4.5 19.5 5.17157 19.5 6H20.5C20.5 4.61929 19.3807 3.5 18 3.5V4.5ZM15 4.5H18V3.5H15V4.5ZM15.5 5V4H14.5V5H15.5ZM14 6.5C14.8284 6.5 15.5 5.82843 15.5 5H14.5C14.5 5.27614 14.2761 5.5 14 5.5V6.5ZM10 6.5H14V5.5H10V6.5ZM8.5 5C8.5 5.82843 9.17157 6.5 10 6.5V5.5C9.72386 5.5 9.5 5.27614 9.5 5H8.5ZM8.5 4V5H9.5V4H8.5ZM9 9.5C8.0335 9.5 7.25 10.2835 7.25 11.25H8.25C8.25 10.8358 8.58579 10.5 9 10.5V9.5ZM15 9.5H9V10.5H15V9.5ZM16.75 11.25C16.75 10.2835 15.9665 9.5 15 9.5V10.5C15.4142 10.5 15.75 10.8358 15.75 11.25H16.75ZM15 13C15.9665 13 16.75 12.2165 16.75 11.25H15.75C15.75 11.6642 15.4142 12 15 12V13ZM9 13H15V12H9V13ZM7.25 11.25C7.25 12.2165 8.0335 13 9 13V12C8.58579 12 8.25 11.6642 8.25 11.25H7.25ZM8.25 15.25C8.25 14.8358 8.58579 14.5 9 14.5V13.5C8.0335 13.5 7.25 14.2835 7.25 15.25H8.25ZM9 16C8.58579 16 8.25 15.6642 8.25 15.25H7.25C7.25 16.2165 8.0335 17 9 17V16ZM15 16H9V17H15V16ZM15.75 15.25C15.75 15.6642 15.4142 16 15 16V17C15.9665 17 16.75 16.2165 16.75 15.25H15.75ZM15 14.5C15.4142 14.5 15.75 14.8358 15.75 15.25H16.75C16.75 14.2835 15.9665 13.5 15 13.5V14.5ZM9 14.5H15V13.5H9V14.5Z" fill="black"/>
<rect x="9" y="2" width="6" height="4" rx="1" stroke="black" stroke-width="2"/>
</svg>
