<svg width="24" height="24" viewBox="0 0 24 24" fill="none" xmlns="http://www.w3.org/2000/svg">
<g clip-path="url(#clip0_1663_21028)">
<path d="M10.5867 3.97424C11.0596 2.64436 12.9404 2.64436 13.4133 3.97424L13.7394 4.89128C14.0372 5.72877 14.9939 6.12503 15.7967 5.74343L16.6757 5.32558C17.9505 4.71962 19.2804 6.04951 18.6744 7.32428L18.2566 8.20333C17.875 9.00611 18.2712 9.96277 19.1087 10.2606L20.0258 10.5867C21.3556 11.0596 21.3556 12.9404 20.0258 13.4133L19.1087 13.7394C18.2712 14.0372 17.875 14.9939 18.2566 15.7967L18.6744 16.6757C19.2804 17.9505 17.9505 19.2804 16.6757 18.6744L15.7967 18.2566C14.9939 17.875 14.0372 18.2712 13.7394 19.1087L13.4133 20.0258C12.9404 21.3556 11.0596 21.3556 10.5867 20.0258L10.2606 19.1087C9.96277 18.2712 9.00611 17.875 8.20333 18.2566L7.32429 18.6744C6.04951 19.2804 4.71962 17.9505 5.32558 16.6757L5.74343 15.7967C6.12503 14.9939 5.72877 14.0372 4.89128 13.7394L3.97424 13.4133C2.64436 12.9404 2.64436 11.0596 3.97424 10.5867L4.89128 10.2606C5.72877 9.96277 6.12503 9.00611 5.74343 8.20333L5.32558 7.32429C4.71962 6.04951 6.04951 4.71962 7.32428 5.32558L8.20333 5.74343C9.00611 6.12503 9.96277 5.72877 10.2606 4.89128L10.5867 3.97424Z" fill="#FF5D58"/>
<path d="M10.2498 10V11" stroke="#450A0A" stroke-width="1.5" stroke-linecap="round"/>
<path d="M13.7498 10V11" stroke="#450A0A" stroke-width="1.5" stroke-linecap="round"/>
<path d="M8 12.75C8.22222 13.75 9.33333 15.75 12 15.75C14.6667 15.75 15.7778 13.75 16 12.75" stroke="#450A0A" stroke-width="1.5" stroke-linecap="round"/>
</g>
<defs>
<clipPath id="clip0_1663_21028">
<rect width="24" height="24" fill="white"/>
</clipPath>
</defs>
</svg>
