<svg width="32" height="32" viewBox="0 0 32 32" fill="none" xmlns="http://www.w3.org/2000/svg">
<rect width="32" height="32" rx="8" fill="#D478FF"/>
<circle cx="15.3957" cy="17.187" r="8" transform="rotate(30 15.3957 17.187)" fill="#FEFBFF"/>
<path d="M18.5967 8.64288C18.8728 8.16459 19.4844 8.00071 19.9627 8.27686L21.2617 9.02686C21.74 9.303 21.9039 9.91459 21.6278 10.3929L20.1278 12.991L17.0967 11.241L18.5967 8.64288Z" fill="#FEFBFF"/>
<path d="M19.6636 10.19L19.9136 9.75695C20.4659 8.80037 21.689 8.47262 22.6456 9.0249L23.0786 9.2749" stroke="#FEFBFF" stroke-width="0.5" stroke-linecap="round" stroke-linejoin="round"/>
<path d="M26.5534 7.86617C26.6981 7.71445 26.9491 7.85934 26.8901 8.06052L26.5126 9.34685C26.4745 9.47682 26.5739 9.60631 26.7093 9.60311L28.0494 9.57146C28.2591 9.56651 28.334 9.84641 28.15 9.94692L26.9736 10.5896C26.8547 10.6545 26.8334 10.8164 26.9314 10.9099L27.9015 11.8351C28.0532 11.9798 27.9083 12.2308 27.7071 12.1718L26.4208 11.7943C26.2908 11.7562 26.1613 11.8556 26.1645 11.991L26.1962 13.3311C26.2011 13.5408 25.9212 13.6158 25.8207 13.4318L25.178 12.2553C25.1131 12.1364 24.9513 12.1151 24.8578 12.2131L23.9325 13.1832C23.7878 13.3349 23.5368 13.19 23.5959 12.9888L23.9733 11.7025C24.0114 11.5725 23.9121 11.443 23.7767 11.4462L22.4365 11.4779C22.2269 11.4828 22.1519 11.2029 22.3359 11.1024L23.5123 10.4597C23.6312 10.3948 23.6525 10.233 23.5545 10.1395L22.5845 9.2142C22.4328 9.06949 22.5776 8.81854 22.7788 8.87757L24.0652 9.255C24.1951 9.29314 24.3246 9.19378 24.3214 9.05837L24.2898 7.71819C24.2848 7.50858 24.5647 7.43358 24.6652 7.61758L25.3079 8.79404C25.3728 8.9129 25.5347 8.93421 25.6281 8.8362L26.5534 7.86617Z" fill="#F2D6FF"/>
</svg>
