<svg width="28" height="28" viewBox="0 0 28 28" fill="none" xmlns="http://www.w3.org/2000/svg">
<mask id="mask0_745_39334" style="mask-type:alpha" maskUnits="userSpaceOnUse" x="2" y="2" width="24" height="24">
<rect x="2" y="2" width="24" height="24" fill="#D9D9D9"/>
</mask>
<g mask="url(#mask0_745_39334)">
<path d="M13.9905 22.7099C13.7763 22.7099 13.5613 22.6715 13.3453 22.5946C13.1293 22.5176 12.9392 22.3971 12.775 22.2331L11.3385 20.9274C9.5655 19.3107 7.9825 17.7226 6.5895 16.1629C5.1965 14.6032 4.5 12.9324 4.5 11.1504C4.5 9.73122 4.9785 8.54306 5.9355 7.58589C6.89267 6.62889 8.08083 6.15039 9.5 6.15039C10.3063 6.15039 11.1028 6.33631 11.8895 6.70814C12.676 7.07997 13.3795 7.68381 14 8.51964C14.6205 7.68381 15.324 7.07997 16.1105 6.70814C16.8972 6.33631 17.6937 6.15039 18.5 6.15039C19.9192 6.15039 21.1073 6.62889 22.0645 7.58589C23.0215 8.54306 23.5 9.73122 23.5 11.1504C23.5 12.9517 22.7917 14.6411 21.375 16.2186C19.9583 17.7961 18.3788 19.3708 16.6365 20.9426L15.2153 22.2331C15.0513 22.3971 14.8597 22.5176 14.6405 22.5946C14.4212 22.6715 14.2045 22.7099 13.9905 22.7099ZM13.2808 10.0389C12.7398 9.21456 12.1702 8.61039 11.572 8.22639C10.974 7.84239 10.2833 7.65039 9.5 7.65039C8.5 7.65039 7.66667 7.98372 7 8.65039C6.33333 9.31706 6 10.1504 6 11.1504C6 11.9529 6.25867 12.792 6.776 13.6676C7.29333 14.5433 7.94267 15.4138 8.724 16.2791C9.50533 17.1446 10.3518 17.9901 11.2635 18.8156C12.175 19.6413 13.0198 20.4086 13.798 21.1176C13.8557 21.169 13.923 21.1946 14 21.1946C14.077 21.1946 14.1443 21.169 14.202 21.1176C14.9802 20.4086 15.825 19.6413 16.7365 18.8156C17.6482 17.9901 18.4947 17.1446 19.276 16.2791C20.0573 15.4138 20.7067 14.5433 21.224 13.6676C21.7413 12.792 22 11.9529 22 11.1504C22 10.1504 21.6667 9.31706 21 8.65039C20.3333 7.98372 19.5 7.65039 18.5 7.65039C17.7167 7.65039 17.026 7.84239 16.428 8.22639C15.8298 8.61039 15.2602 9.21456 14.7192 10.0389C14.6346 10.1671 14.5282 10.2632 14.4 10.3274C14.2718 10.3914 14.1385 10.4234 14 10.4234C13.8615 10.4234 13.7282 10.3914 13.6 10.3274C13.4718 10.2632 13.3654 10.1671 13.2808 10.0389Z" fill="#D4D4D4"/>
</g>
</svg>
