<svg width="36" height="36" viewBox="0 0 36 36" fill="none" xmlns="http://www.w3.org/2000/svg">
<path d="M21.9307 10.8241L22.5652 9.72522C23.1175 8.76863 24.3407 8.44088 25.2972 8.99316L26.3961 9.6276" stroke="#E5E5E5" stroke-width="0.5" stroke-linecap="round" stroke-linejoin="round"/>
<path d="M31.1144 7.60226C31.2591 7.45055 31.5101 7.59543 31.4511 7.79662L30.8625 9.80245C30.8244 9.93241 30.9237 10.0619 31.0591 10.0587L33.1489 10.0094C33.3586 10.0044 33.4336 10.2843 33.2496 10.3848L31.4151 11.387C31.2962 11.4519 31.2749 11.6137 31.3729 11.7072L32.8855 13.1501C33.0372 13.2948 32.8923 13.5457 32.6912 13.4867L30.6853 12.8981C30.5554 12.86 30.4259 12.9594 30.4291 13.0948L30.4784 15.1846C30.4834 15.3942 30.2035 15.4692 30.1029 15.2852L29.1008 13.4507C29.0358 13.3318 28.874 13.3105 28.7805 13.4085L27.3377 14.9211C27.193 15.0729 26.9421 14.928 27.0011 14.7268L27.5896 12.721C27.6278 12.591 27.5284 12.4615 27.393 12.4647L25.3032 12.514C25.0936 12.519 25.0186 12.2391 25.2026 12.1386L27.0371 11.1364C27.1559 11.0715 27.1772 10.9097 27.0792 10.8162L25.5666 9.37334C25.4149 9.22863 25.5598 8.97768 25.761 9.03671L27.7668 9.62526C27.8968 9.66339 28.0263 9.56403 28.0231 9.42863L27.9737 7.33882C27.9688 7.12921 28.2487 7.05421 28.3492 7.23821L29.3514 9.07272C29.4163 9.19158 29.5781 9.21288 29.6716 9.11488L31.1144 7.60226Z" fill="#FF472F"/>
<path d="M20.6897 8.53497C20.9658 8.05668 21.5774 7.8928 22.0557 8.16895L24.287 9.45716C24.7653 9.7333 24.9291 10.3449 24.653 10.8232L22.5379 14.4867L18.5746 12.1984L20.6897 8.53497Z" fill="#525252"/>
<circle cx="16.3505" cy="19.9728" r="10.4604" transform="rotate(30 16.3505 19.9728)" fill="#262626"/>
</svg>
