<svg width="24" height="24" viewBox="0 0 24 24" fill="none" xmlns="http://www.w3.org/2000/svg">
<path fill-rule="evenodd" clip-rule="evenodd" d="M9 4H6C4.89543 4 4 4.89543 4 6V19C4 20.1046 4.89543 21 6 21H18C19.1046 21 20 20.1046 20 19V6C20 4.89543 19.1046 4 18 4H15V5C15 5.55228 14.5523 6 14 6H10C9.44772 6 9 5.55228 9 5V4ZM7.75 11.25C7.75 10.5596 8.30964 10 9 10H15C15.6904 10 16.25 10.5596 16.25 11.25C16.25 11.9404 15.6904 12.5 15 12.5H9C8.30964 12.5 7.75 11.9404 7.75 11.25ZM9 14C8.30964 14 7.75 14.5596 7.75 15.25C7.75 15.9404 8.30964 16.5 9 16.5H15C15.6904 16.5 16.25 15.9404 16.25 15.25C16.25 14.5596 15.6904 14 15 14H9Z" fill="#D4D4D4"/>
<path d="M9 4H9.375V3.625H9V4ZM15 4V3.625H14.625V4H15ZM6 4.375H9V3.625H6V4.375ZM4.375 6C4.375 5.10254 5.10254 4.375 6 4.375V3.625C4.68832 3.625 3.625 4.68832 3.625 6H4.375ZM4.375 19V6H3.625V19H4.375ZM6 20.625C5.10254 20.625 4.375 19.8975 4.375 19H3.625C3.625 20.3117 4.68832 21.375 6 21.375V20.625ZM18 20.625H6V21.375H18V20.625ZM19.625 19C19.625 19.8975 18.8975 20.625 18 20.625V21.375C19.3117 21.375 20.375 20.3117 20.375 19H19.625ZM19.625 6V19H20.375V6H19.625ZM18 4.375C18.8975 4.375 19.625 5.10254 19.625 6H20.375C20.375 4.68832 19.3117 3.625 18 3.625V4.375ZM15 4.375H18V3.625H15V4.375ZM15.375 5V4H14.625V5H15.375ZM14 6.375C14.7594 6.375 15.375 5.75939 15.375 5H14.625C14.625 5.34518 14.3452 5.625 14 5.625V6.375ZM10 6.375H14V5.625H10V6.375ZM8.625 5C8.625 5.75939 9.24061 6.375 10 6.375V5.625C9.65482 5.625 9.375 5.34518 9.375 5H8.625ZM8.625 4V5H9.375V4H8.625ZM9 9.625C8.10254 9.625 7.375 10.3525 7.375 11.25H8.125C8.125 10.7668 8.51675 10.375 9 10.375V9.625ZM15 9.625H9V10.375H15V9.625ZM16.625 11.25C16.625 10.3525 15.8975 9.625 15 9.625V10.375C15.4832 10.375 15.875 10.7668 15.875 11.25H16.625ZM15 12.875C15.8975 12.875 16.625 12.1475 16.625 11.25H15.875C15.875 11.7332 15.4832 12.125 15 12.125V12.875ZM9 12.875H15V12.125H9V12.875ZM7.375 11.25C7.375 12.1475 8.10254 12.875 9 12.875V12.125C8.51675 12.125 8.125 11.7332 8.125 11.25H7.375ZM8.125 15.25C8.125 14.7668 8.51675 14.375 9 14.375V13.625C8.10254 13.625 7.375 14.3525 7.375 15.25H8.125ZM9 16.125C8.51675 16.125 8.125 15.7332 8.125 15.25H7.375C7.375 16.1475 8.10254 16.875 9 16.875V16.125ZM15 16.125H9V16.875H15V16.125ZM15.875 15.25C15.875 15.7332 15.4832 16.125 15 16.125V16.875C15.8975 16.875 16.625 16.1475 16.625 15.25H15.875ZM15 14.375C15.4832 14.375 15.875 14.7668 15.875 15.25H16.625C16.625 14.3525 15.8975 13.625 15 13.625V14.375ZM9 14.375H15V13.625H9V14.375Z" fill="#D4D4D4"/>
<rect x="9" y="2" width="6" height="4" rx="1" stroke="#D4D4D4" stroke-width="1.5"/>
</svg>
