<svg width="24" height="24" viewBox="0 0 24 24" fill="none" xmlns="http://www.w3.org/2000/svg">
<path d="M9 4H10V3H9V4ZM15 4V3H14V4H15ZM6 5H9V3H6V5ZM5 6C5 5.44772 5.44772 5 6 5V3C4.34315 3 3 4.34315 3 6H5ZM5 19V6H3V19H5ZM6 20C5.44771 20 5 19.5523 5 19H3C3 20.6569 4.34315 22 6 22V20ZM18 20H6V22H18V20ZM19 19C19 19.5523 18.5523 20 18 20V22C19.6569 22 21 20.6569 21 19H19ZM19 6V19H21V6H19ZM18 5C18.5523 5 19 5.44772 19 6H21C21 4.34315 19.6569 3 18 3V5ZM15 5H18V3H15V5ZM14 4V5H16V4H14ZM14 5V7C15.1046 7 16 6.10457 16 5H14ZM14 5H10V7H14V5ZM10 5H8C8 6.10457 8.89543 7 10 7V5ZM10 5V4H8V5H10Z" fill="black"/>
<rect x="9" y="2" width="6" height="4" rx="1" stroke="black" stroke-width="2" stroke-linejoin="round"/>
<rect x="8" y="10" width="8" height="2" rx="1" fill="black"/>
<rect x="8" y="14" width="8" height="2" rx="1" fill="black"/>
</svg>
