<svg width="24" height="24" viewBox="0 0 24 24" fill="none" xmlns="http://www.w3.org/2000/svg">
<mask id="mask0_1606_5206" style="mask-type:alpha" maskUnits="userSpaceOnUse" x="0" y="0" width="24" height="24">
<path opacity="0.902" d="M7.41545 16.7274L7.51016 16.3566L7.17696 16.1683C4.92595 14.8965 3.5 12.7894 3.5 10.4487C3.5 8.93884 4.46302 7.20307 6.06066 5.82256C7.64723 4.45162 9.7848 3.5 12 3.5C14.3494 3.5 16.4847 4.45466 18.0332 5.81934C19.5916 7.19284 20.5 8.92871 20.5 10.4487C20.5 14.2021 16.7866 17.3975 12 17.3975C11.6375 17.3975 11.2789 17.3762 10.9247 17.3394L10.7377 17.32L10.5843 17.4285L6.49806 20.3189L7.41545 16.7274Z" fill="#0A0A0A" stroke="#171719"/>
</mask>
<g mask="url(#mask0_1606_5206)">
<rect width="24" height="24" fill="#171717"/>
</g>
</svg>
