<svg width="28" height="28" viewBox="0 0 28 28" fill="none" xmlns="http://www.w3.org/2000/svg">
<mask id="mask0_745_39333" style="mask-type:alpha" maskUnits="userSpaceOnUse" x="2" y="2" width="24" height="24">
<rect x="2" y="2" width="24" height="24" fill="#D9D9D9"/>
</mask>
<g mask="url(#mask0_745_39333)">
<path d="M13.9905 22.7099C13.7763 22.7099 13.5613 22.6715 13.3453 22.5946C13.1293 22.5176 12.9392 22.3971 12.775 22.2331L11.3385 20.9274C9.5655 19.3107 7.9825 17.7226 6.5895 16.1629C5.1965 14.6032 4.5 12.9324 4.5 11.1504C4.5 9.73122 4.9785 8.54306 5.9355 7.58589C6.89267 6.62889 8.08083 6.15039 9.5 6.15039C10.3063 6.15039 11.1028 6.33631 11.8895 6.70814C12.676 7.07997 13.3795 7.68381 14 8.51964C14.6205 7.68381 15.324 7.07997 16.1105 6.70814C16.8972 6.33631 17.6937 6.15039 18.5 6.15039C19.9192 6.15039 21.1073 6.62889 22.0645 7.58589C23.0215 8.54306 23.5 9.73122 23.5 11.1504C23.5 12.9517 22.7917 14.6411 21.375 16.2186C19.9583 17.7961 18.3788 19.3708 16.6365 20.9426L15.2153 22.2331C15.0513 22.3971 14.8597 22.5176 14.6405 22.5946C14.4212 22.6715 14.2045 22.7099 13.9905 22.7099Z" fill="#FF5D58"/>
</g>
</svg>
