<svg width="28" height="28" viewBox="0 0 28 28" fill="none" xmlns="http://www.w3.org/2000/svg">
<mask id="mask0_745_39330" style="mask-type:alpha" maskUnits="userSpaceOnUse" x="2" y="2" width="24" height="24">
<rect x="2" y="2" width="24" height="24" fill="#D9D9D9"/>
</mask>
<g mask="url(#mask0_745_39330)">
<path d="M11.5498 17.515L20.1883 8.87653C20.3369 8.7277 20.5109 8.6517 20.7103 8.64853C20.9096 8.64537 21.0868 8.72137 21.242 8.87653C21.3972 9.0317 21.4748 9.20987 21.4748 9.41103C21.4748 9.61237 21.3972 9.79061 21.242 9.94578L12.1825 19.0208C12.0017 19.2014 11.7908 19.2918 11.5498 19.2918C11.3088 19.2918 11.0978 19.2014 10.917 19.0208L6.74201 14.8458C6.59335 14.6969 6.52001 14.5203 6.52201 14.3158C6.52385 14.1114 6.60235 13.9317 6.75751 13.7765C6.91268 13.6214 7.09085 13.5438 7.29201 13.5438C7.49335 13.5438 7.6716 13.6214 7.82676 13.7765L11.5498 17.515Z" fill="#D4D4D4"/>
</g>
</svg>
