<svg width="24" height="24" viewBox="0 0 24 24" fill="none" xmlns="http://www.w3.org/2000/svg">
<path fill-rule="evenodd" clip-rule="evenodd" d="M12 4C10.067 4 8.5 5.567 8.5 7.5C8.5 9.433 10.067 11 12 11C13.933 11 15.5 9.433 15.5 7.5C15.5 5.567 13.933 4 12 4Z" fill="black"/>
<path d="M9.5 7.5C9.5 6.11929 10.6193 5 12 5V3C9.51472 3 7.5 5.01472 7.5 7.5H9.5ZM12 10C10.6193 10 9.5 8.88071 9.5 7.5H7.5C7.5 9.98528 9.51472 12 12 12V10ZM14.5 7.5C14.5 8.88071 13.3807 10 12 10V12C14.4853 12 16.5 9.98528 16.5 7.5H14.5ZM12 5C13.3807 5 14.5 6.11929 14.5 7.5H16.5C16.5 5.01472 14.4853 3 12 3V5Z" fill="black"/>
<path fill-rule="evenodd" clip-rule="evenodd" d="M11.5 13.333C7.91015 13.333 5 15.8794 5 19.0205C5 19.7454 5.58763 20.333 6.3125 20.333H17.6875C18.4124 20.333 19 19.7454 19 19.0205C19 15.8794 16.0899 13.333 12.5 13.333H11.5Z" fill="black"/>
<path d="M6 19.0205C6 16.5529 8.33283 14.333 11.5 14.333V12.333C7.48747 12.333 4 15.2059 4 19.0205H6ZM17.6875 19.333H6.3125V21.333H17.6875V19.333ZM12.5 14.333C15.6672 14.333 18 16.5529 18 19.0205H20C20 15.2059 16.5125 12.333 12.5 12.333V14.333ZM11.5 14.333H12.5V12.333H11.5V14.333ZM17.6875 21.333C18.9647 21.333 20 20.2977 20 19.0205H18C18 19.1931 17.8601 19.333 17.6875 19.333V21.333ZM4 19.0205C4 20.2977 5.03534 21.333 6.3125 21.333V19.333C6.13991 19.333 6 19.1931 6 19.0205H4Z" fill="black"/>
</svg>
