<svg width="28" height="28" viewBox="0 0 28 28" fill="none" xmlns="http://www.w3.org/2000/svg">
<mask id="mask0_745_39331" style="mask-type:alpha" maskUnits="userSpaceOnUse" x="2" y="2" width="24" height="24">
<rect x="2" y="2" width="24" height="24" fill="#D9D9D9"/>
</mask>
<g mask="url(#mask0_745_39331)">
<path d="M9.875 8.74625L12.5787 5.198C12.7582 4.95783 12.9714 4.7815 13.2183 4.669C13.4651 4.55633 13.7257 4.5 14 4.5C14.2743 4.5 14.5349 4.55633 14.7817 4.669C15.0286 4.7815 15.2417 4.95783 15.4212 5.198L18.125 8.74625L22.2595 10.1423C22.6545 10.2693 22.9625 10.4932 23.1835 10.814C23.4047 11.135 23.5152 11.4895 23.5152 11.8775C23.5152 12.0567 23.4891 12.2353 23.4368 12.4133C23.3844 12.5913 23.2984 12.7618 23.1788 12.925L20.4865 16.6615L20.5865 20.627C20.6032 21.1535 20.4296 21.5973 20.0658 21.9583C19.7021 22.3194 19.2783 22.5 18.7943 22.5C18.7801 22.5 18.6128 22.4782 18.2923 22.4345L14 21.2038L9.70775 22.4345C9.62442 22.4678 9.53842 22.4871 9.44975 22.4923C9.36108 22.4974 9.27975 22.5 9.20575 22.5C8.71725 22.5 8.29225 22.3194 7.93075 21.9583C7.56925 21.5973 7.39683 21.1535 7.4135 20.627L7.5135 16.6365L4.8365 12.925C4.71683 12.7612 4.63083 12.5899 4.5785 12.4113C4.52617 12.2324 4.5 12.0537 4.5 11.875C4.5 11.4978 4.60983 11.1471 4.8295 10.8227C5.04917 10.4984 5.356 10.2684 5.75 10.1328L9.875 8.74625Z" fill="#F5C905"/>
</g>
</svg>
